<mxfile host="app.diagrams.net" modified="2024-03-13T01:26:23.573Z" agent="Mozilla/5.0 (Windows NT 10.0; Win64; x64) AppleWebKit/537.36 (KHTML, like Gecko) Chrome/122.0.0.0 Safari/537.36" version="24.0.5" etag="RD5uVeNk8x61ZqUQ1ZFA" type="github">
  <diagram name="PÃ¡gina-1" id="at59alG0O0ZoHwvyiQbc">
    <mxGraphModel>
      <root>
        <mxCell id="0" />
        <mxCell id="1" parent="0" />
      </root>
    </mxGraphModel>
  </diagram>
</mxfile>
